<mxfile host="Electron" agent="Mozilla/5.0 (X11; Linux x86_64) AppleWebKit/537.36 (KHTML, like Gecko) draw.io/26.0.16 Chrome/132.0.6834.196 Electron/34.2.0 Safari/537.36" version="26.0.16">
  <diagram name="Page-1" id="GTsPB2hXd6BTcTOMK5xk">
    <mxGraphModel dx="1434" dy="878" grid="1" gridSize="10" guides="1" tooltips="1" connect="1" arrows="1" fold="1" page="1" pageScale="1" pageWidth="850" pageHeight="1100" math="0" shadow="0">
      <root>
        <mxCell id="0" />
        <mxCell id="1" parent="0" />
        <mxCell id="cAx9rAFkMP_3yn_bTL0R-26" value="" style="rounded=0;whiteSpace=wrap;html=1;" vertex="1" parent="1">
          <mxGeometry x="500" y="40" width="370" height="660" as="geometry" />
        </mxCell>
        <mxCell id="cAx9rAFkMP_3yn_bTL0R-22" value="" style="whiteSpace=wrap;html=1;aspect=fixed;" vertex="1" parent="1">
          <mxGeometry x="535" y="370" width="300" height="300" as="geometry" />
        </mxCell>
        <mxCell id="cAx9rAFkMP_3yn_bTL0R-7" style="edgeStyle=orthogonalEdgeStyle;rounded=0;orthogonalLoop=1;jettySize=auto;html=1;" edge="1" parent="1" source="cAx9rAFkMP_3yn_bTL0R-2" target="cAx9rAFkMP_3yn_bTL0R-5">
          <mxGeometry relative="1" as="geometry" />
        </mxCell>
        <mxCell id="cAx9rAFkMP_3yn_bTL0R-2" value="" style="image;html=1;image=img/lib/clip_art/computers/Server_128x128.png" vertex="1" parent="1">
          <mxGeometry x="180" y="240" width="80" height="80" as="geometry" />
        </mxCell>
        <mxCell id="cAx9rAFkMP_3yn_bTL0R-3" value="Raspberry pi 4 / ubuntu server" style="text;html=1;align=center;verticalAlign=middle;resizable=0;points=[];autosize=1;strokeColor=none;fillColor=none;fontSize=14;" vertex="1" parent="1">
          <mxGeometry x="120" y="330" width="210" height="30" as="geometry" />
        </mxCell>
        <mxCell id="cAx9rAFkMP_3yn_bTL0R-5" style="shape=image;editableCssRules=.*;image=data:image/svg+xml,PHN2ZyB2aWV3Qm94PSIwIDAgMjQgMjQiIHhtbG5zPSJodHRwOi8vd3d3LnczLm9yZy8yMDAwL3N2ZyI+PHN0eWxlPip7ZmlsbDojMjQ5NkVEfTwvc3R5bGU+PHBhdGggZD0iTTEzLjk4MyAxMS4wNzhoMi4xMTlhLjE4Ni4xODYgMCAwMC4xODYtLjE4NVY5LjAwNmEuMTg2LjE4NiAwIDAwLS4xODYtLjE4NmgtMi4xMTlhLjE4NS4xODUgMCAwMC0uMTg1LjE4NXYxLjg4OGMwIC4xMDIuMDgzLjE4NS4xODUuMTg1bS0yLjk1NC01LjQzaDIuMTE4YS4xODYuMTg2IDAgMDAuMTg2LS4xODZWMy41NzRhLjE4Ni4xODYgMCAwMC0uMTg2LS4xODVoLTIuMTE4YS4xODUuMTg1IDAgMDAtLjE4NS4xODV2MS44ODhjMCAuMTAyLjA4Mi4xODUuMTg1LjE4NW0wIDIuNzE2aDIuMTE4YS4xODcuMTg3IDAgMDAuMTg2LS4xODZWNi4yOWEuMTg2LjE4NiAwIDAwLS4xODYtLjE4NWgtMi4xMThhLjE4NS4xODUgMCAwMC0uMTg1LjE4NXYxLjg4N2MwIC4xMDIuMDgyLjE4NS4xODUuMTg2bS0yLjkzIDBoMi4xMmEuMTg2LjE4NiAwIDAwLjE4NC0uMTg2VjYuMjlhLjE4NS4xODUgMCAwMC0uMTg1LS4xODVIOC4xYS4xODUuMTg1IDAgMDAtLjE4NS4xODV2MS44ODdjMCAuMTAyLjA4My4xODUuMTg1LjE4Nm0tMi45NjQgMGgyLjExOWEuMTg2LjE4NiAwIDAwLjE4NS0uMTg2VjYuMjlhLjE4NS4xODUgMCAwMC0uMTg1LS4xODVINS4xMzZhLjE4Ni4xODYgMCAwMC0uMTg2LjE4NXYxLjg4N2MwIC4xMDIuMDg0LjE4NS4xODYuMTg2bTUuODkzIDIuNzE1aDIuMTE4YS4xODYuMTg2IDAgMDAuMTg2LS4xODVWOS4wMDZhLjE4Ni4xODYgMCAwMC0uMTg2LS4xODZoLTIuMTE4YS4xODUuMTg1IDAgMDAtLjE4NS4xODV2MS44ODhjMCAuMTAyLjA4Mi4xODUuMTg1LjE4NW0tMi45MyAwaDIuMTJhLjE4NS4xODUgMCAwMC4xODQtLjE4NVY5LjAwNmEuMTg1LjE4NSAwIDAwLS4xODQtLjE4NmgtMi4xMmEuMTg1LjE4NSAwIDAwLS4xODQuMTg1djEuODg4YzAgLjEwMi4wODMuMTg1LjE4NS4xODVtLTIuOTY0IDBoMi4xMTlhLjE4NS4xODUgMCAwMC4xODUtLjE4NVY5LjAwNmEuMTg1LjE4NSAwIDAwLS4xODQtLjE4NmgtMi4xMmEuMTg2LjE4NiAwIDAwLS4xODYuMTg2djEuODg3YzAgLjEwMi4wODQuMTg1LjE4Ni4xODVtLTIuOTIgMGgyLjEyYS4xODUuMTg1IDAgMDAuMTg0LS4xODVWOS4wMDZhLjE4NS4xODUgMCAwMC0uMTg0LS4xODZoLTIuMTJhLjE4NS4xODUgMCAwMC0uMTg0LjE4NXYxLjg4OGMwIC4xMDIuMDgyLjE4NS4xODUuMTg1TTIzLjc2MyA5Ljg5Yy0uMDY1LS4wNTEtLjY3Mi0uNTEtMS45NTQtLjUxLS4zMzguMDAxLS42NzYuMDMtMS4wMS4wODctLjI0OC0xLjctMS42NTMtMi41My0xLjcxNi0yLjU2NmwtLjM0NC0uMTk5LS4yMjYuMzI3Yy0uMjg0LjQzOC0uNDkuOTIyLS42MTIgMS40My0uMjMuOTctLjA5IDEuODgyLjQwMyAyLjY2MS0uNTk1LjMzMi0xLjU1LjQxMy0xLjc0NC40MkguNzUxYS43NTEuNzUxIDAgMDAtLjc1Ljc0OCAxMS4zNzYgMTEuMzc2IDAgMDAuNjkyIDQuMDYyYy41NDUgMS40MjggMS4zNTUgMi40OCAyLjQxIDMuMTI0IDEuMTguNzIzIDMuMSAxLjEzNyA1LjI3NSAxLjEzNy45ODMuMDAzIDEuOTYzLS4wODYgMi45My0uMjY2YTEyLjI0OCAxMi4yNDggMCAwMDMuODIzLTEuMzg5Yy45OC0uNTY3IDEuODYtMS4yODggMi42MS0yLjEzNiAxLjI1Mi0xLjQxOCAxLjk5OC0yLjk5NyAyLjU1My00LjRoLjIyMWMxLjM3MiAwIDIuMjE1LS41NDkgMi42OC0xLjAwOS4zMDktLjI5My41NS0uNjUuNzA3LTEuMDQ2bC4wOTgtLjI4OFoiLz48L3N2Zz4=;" vertex="1" parent="1">
          <mxGeometry x="370" y="240" width="80" height="80" as="geometry" />
        </mxCell>
        <mxCell id="cAx9rAFkMP_3yn_bTL0R-6" value="Docker compose" style="text;html=1;align=center;verticalAlign=middle;resizable=0;points=[];autosize=1;strokeColor=none;fillColor=none;fontSize=14;" vertex="1" parent="1">
          <mxGeometry x="340" y="310" width="130" height="30" as="geometry" />
        </mxCell>
        <mxCell id="cAx9rAFkMP_3yn_bTL0R-10" style="shape=image;editableCssRules=.*;image=data:image/svg+xml,PHN2ZyB2aWV3Qm94PSIwIDAgMjQgMjQiIHhtbG5zPSJodHRwOi8vd3d3LnczLm9yZy8yMDAwL3N2ZyI+PHN0eWxlPip7ZmlsbDojMDBBNERDfTwvc3R5bGU+PHBhdGggZD0iTTEyIC4wMDJDOC44MjYuMDAyLTEuMzk4IDE4LjUzNy4xNiAyMS42NjZjMS41NiAzLjEyOSAyMi4xNCAzLjA5NCAyMy42ODIgMEMyNS4zODQgMTguNTczIDE1LjE3NyAwIDEyIDB6bTcuNzYgMTguOTQ5Yy0xLjAwOCAyLjAyOC0xNC40OTMgMi4wNS0xNS41MTQgMEMzLjIyNCAxNi45IDkuOTIgNC43NTUgMTIuMDAzIDQuNzU1YzIuMDgxIDAgOC43NyAxMi4xNjYgNy43NTkgMTQuMTk2ek0xMiA5LjE5OGMtMS4wNTQgMC00LjQ0NiA2LjE1LTMuOTMgNy4xODkuNTE4IDEuMDQgNy4zNDggMS4wMjcgNy44NiAwIC41MTEtMS4wMjctMi44NzQtNy4xOS0zLjkzLTcuMTl6Ii8+PC9zdmc+;" vertex="1" parent="1">
          <mxGeometry x="705" y="400" width="80" height="80" as="geometry" />
        </mxCell>
        <mxCell id="cAx9rAFkMP_3yn_bTL0R-11" value="Jellyfin" style="text;html=1;align=center;verticalAlign=middle;resizable=0;points=[];autosize=1;strokeColor=none;fillColor=none;" vertex="1" parent="1">
          <mxGeometry x="715" y="480" width="60" height="30" as="geometry" />
        </mxCell>
        <mxCell id="cAx9rAFkMP_3yn_bTL0R-12" style="shape=image;editableCssRules=.*;image=data:image/svg+xml,PHN2ZyB2aWV3Qm94PSIwIDAgMjQgMjQiIHhtbG5zPSJodHRwOi8vd3d3LnczLm9yZy8yMDAwL3N2ZyI+PHN0eWxlPip7ZmlsbDojMjU5NkJFfTwvc3R5bGU+PHBhdGggZD0iTTIxLjIxMiA0LjI4MmMxLjg1MSAyLjIwNCAyLjc3NyA0Ljc3NiAyLjc3NyA3LjcxOCAwIDIuODQ4LS44NjcgNS4zNDQtMi42MDIgNy40ODlhOTM0LjM1NSA5MzQuMzU1IDAgMCAxLTIuMTAxLTIuMDk1Yy0xLjQ3Ny0xLjQ3Ny0xLjc5Mi0zLjI5My0xLjc5Mi01LjI3OCAwLTIuMjI0LjEyNy0zLjQ4NiAxLjU3Ny00LjkzNWwyLjQ3OC0yLjQ3OGExMy4yMDkgMTMuMjA5IDAgMCAwLS4zMzctLjQyMVptLTE3LjcgMTYuMTkzQzEuNzA4IDE4LjY3OC42IDE2LjU5LjE4OCAxNC4yMTNBMTEuODQgMTEuODQgMCAwIDEgLjAxMSAxMmMwLS4yOC4wMDYtLjU0OC4wMTctLjgwMiAwLS4wMjYuMDA3LS4wNTIuMDIyLS4wNzguMTUzLTIuNjAxIDEuMDc2LTQuODg5IDIuNzY3LTYuODY1LS4xMDguMTI3LS4yMTQuMjU2LS4zMTYuMzg3IDAgMCAxLjM1MSAxLjM0NiAyLjMyOSAyLjMyMyAxLjQwOCAxLjQwOSAxLjcyNiAzLjIxNSAxLjcyNiA1LjE1MSAwIDEuOTg1LS4yNDkgMy43NjItMS43ODEgNS4yOTUtMS4wMzUgMS4wMzUtMi4xMTkgMi4xMjQtMi4xMTkgMi4xMjQuMTEyLjEzNi4yMjkuMjcxLjM0OS40MDQuMDI5LS4wMjcgMS4yOTctMS4zNDggMi4xMjMtMi4xNzUgMS42MzgtMS42MzcgMS45MjgtMy41MjggMS45MjgtNS42NDggMC0yLjA3Mi0uMzY1LTMuOTk3LTEuODczLTUuNTA0YTYyMC4wNDUgNjIwLjA0NSAwIDAgMC0yLjM2Ni0yLjM1N2MuMTY4LS4xOTYuMzQyLS4zODguNTIzLS41NzZsMy4xMTcgMy4xMDYtLjE5NC4xOTUgMS45MDMgMS44OTguNTQ3LS41NDlMNi44MSA2LjQzMmwtLjE5Ni4xOTZMMy40OTUgMy41MmMuMDEtLjAwOS40MzYtLjQxNi42NDMtLjU5Ny4wMDkuMDExIDIuMjggMi4yODMgMi4yOCAyLjI4MyAxLjUzOCAxLjUzNyAzLjUgMS45NTUgNS42MjEgMS45NTUgMi4xOCAwIDQuMTM0LS40NDIgNS43MzEtMi4wMzguOTA3LS45MDggMi4xNTMtMi4xNDkgMi4xNjItMi4xNi4xNy4xNTEuNDkxLjQ2MS41Ni41MjhsLjAxMy4wMTMtMy4xMTEgMy4wMjgtLjAwMS4wMDItLjE5Ny0uMTk0LTEuODc2IDEuOTAzLjU1Mi41NDMgMS44NzUtMS45MDMtLjE5Ny0uMTk0IDMuMTA5LTMuMDI2Yy4xOTMuMjAzLjM3Ny40MS41NTMuNjE5LS4wMy4wMjUtMi40OTUgMi41NDYtMi40OTUgMi41NDYtMS41NTYgMS41NTYtMS43MjMgMi45LTEuNzIzIDUuMjg4IDAgMi4xMjEuMzYxIDQuMDU0IDEuOTM5IDUuNjMyYTU3Ni45MSA1NzYuOTEgMCAwIDAgMi4xMzMgMi4xMjRjLS4xODMuMjA4LS41OTkuNjQ1LS42MTMuNjZsLTMuMDY2LTMuMTc0LjE5NS0uMTk2LTEuOTk1LTEuOTg2LS41NDYuNTQ5IDEuOTk1IDEuOTg2LjE5NS0uMTk2IDMuMDY1IDMuMTcyYy0uMDIxLjAxOS0uMzg1LjM2Mi0uNTUyLjUwNi0uMDEtLjAxMy0xLjk3NC0xLjk3OC0xLjk3NC0xLjk3OC0xLjg0Mi0xLjg0Mi0zLjI5OS0yLjAzOS01LjczMS0yLjAzOS0yLjMzOCAwLTMuOTIuMjM5LTUuNjMyIDEuOTUtLjk0NC45NDQtMi4wNzggMi4wODUtMi4wODkgMi4wOTktLjI3NS0uMjMtLjY0OS0uNTk0LS42NDktLjU5NGwzLjAxOS0zLjAyNC4xOTkuMTkyIDEuODU0LTEuOTI1LS41NTgtLjUzOC0xLjg1NCAxLjkyNi4xOTkuMTkxLTMuMDE2IDMuMDIyWk0xMiA4LjY3MkEzLjMzIDMuMzMgMCAwIDAgOC42NzIgMTIgMy4zMyAzLjMzIDAgMCAwIDEyIDE1LjMyOCAzLjMzIDMuMzMgMCAwIDAgMTUuMzI4IDEyIDMuMzMgMy4zMyAwIDAgMCAxMiA4LjY3MlpNNC41MiAyLjZDNi42NjUuODY3IDkuMTYyIDAgMTIuMDExIDBjMi44OCAwIDUuMzk0Ljg4IDcuNTQxIDIuNjM5IDAgMC0xLjIxNSAxLjIwOS0yLjEzNiAyLjEzLTEuNDk2IDEuNDk2LTMuMzM0IDEuODkyLTUuMzc3IDEuODkyLTEuOTg1IDAtMy44MjktLjM3LTUuMjY3LTEuODA5TDQuNTIgMi42Wm0xNC44MzcgMTguOTA5YTkuNTA3IDkuNTA3IDAgMCAxLS4zNDIuMjU2QzE2Ljk5NCAyMy4yNTUgMTQuNjU5IDI0IDEyLjAxMSAyNGMtMi42NTIgMC00Ljk4My0uNzQ1LTYuOTkzLTIuMjM1LS4xMDQtLjA3NC0uMjA4LS4xNS0uMzEtLjIyNyAwIDAgMS4wOTYtMS4xMDEgMi4wNTMtMi4wNTggMS42MDItMS42MDIgMy4wOS0xLjgwNCA1LjI3OC0xLjgwNCAyLjI4IDAgMy42NTEuMTY2IDUuMzc3IDEuODkybDEuOTQxIDEuOTQxWiIvPjwvc3ZnPg==;" vertex="1" parent="1">
          <mxGeometry x="705" y="530" width="80" height="80" as="geometry" />
        </mxCell>
        <mxCell id="cAx9rAFkMP_3yn_bTL0R-13" value="Sonarr" style="text;html=1;align=center;verticalAlign=middle;resizable=0;points=[];autosize=1;strokeColor=none;fillColor=none;" vertex="1" parent="1">
          <mxGeometry x="715" y="610" width="60" height="30" as="geometry" />
        </mxCell>
        <mxCell id="cAx9rAFkMP_3yn_bTL0R-18" value="Prowlarr" style="text;html=1;align=center;verticalAlign=middle;resizable=0;points=[];autosize=1;strokeColor=none;fillColor=none;" vertex="1" parent="1">
          <mxGeometry x="590" y="610" width="70" height="30" as="geometry" />
        </mxCell>
        <mxCell id="cAx9rAFkMP_3yn_bTL0R-23" value="Media center" style="text;html=1;align=center;verticalAlign=middle;resizable=0;points=[];autosize=1;strokeColor=none;fillColor=none;fontSize=14;" vertex="1" parent="1">
          <mxGeometry x="525" y="340" width="100" height="30" as="geometry" />
        </mxCell>
        <mxCell id="cAx9rAFkMP_3yn_bTL0R-25" value="Dns" style="text;html=1;align=center;verticalAlign=middle;resizable=0;points=[];autosize=1;strokeColor=none;fillColor=none;fontSize=14;" vertex="1" parent="1">
          <mxGeometry x="520" y="200" width="50" height="30" as="geometry" />
        </mxCell>
        <mxCell id="cAx9rAFkMP_3yn_bTL0R-27" style="edgeStyle=orthogonalEdgeStyle;rounded=0;orthogonalLoop=1;jettySize=auto;html=1;entryX=0.005;entryY=0.365;entryDx=0;entryDy=0;entryPerimeter=0;" edge="1" parent="1" source="cAx9rAFkMP_3yn_bTL0R-5" target="cAx9rAFkMP_3yn_bTL0R-26">
          <mxGeometry relative="1" as="geometry" />
        </mxCell>
        <mxCell id="cAx9rAFkMP_3yn_bTL0R-30" value="" style="shape=image;aspect=fixed;image=data:image/svg+xml,PHN2ZyBoZWlnaHQ9IjEwMjQiIHZpZXdCb3g9IjAgMCAxMDI0IDEwMjQiIHdpZHRoPSIxMDI0IiB4bWxucz0iaHR0cDovL3d3dy53My5vcmcvMjAwMC9zdmciPjxnIHRyYW5zZm9ybT0ibWF0cml4KDUuNDYxMzMzMzMwMTMgMCAwIC01LjQ2MTMzMzMzMDEzIDc2NS40MjQwNTkxNjM0MiAyMDEzLjYzNDc2MjU1NTA1KSI+PGNpcmNsZSBjeD0iLTQ2LjQwMyIgY3k9Ii0yNzQuOTU4IiBmaWxsPSIjZmZlNmQ1IiBmaWxsLXJ1bGU9ImV2ZW5vZGQiIHI9IjkwIiBzdHJva2Utd2lkdGg9IjEuNjgxNzgiIHRyYW5zZm9ybT0ic2NhbGUoMSAtMSkiLz48cGF0aCBkPSJtLTEwOC4xMDE1NiAyNTguNTA2ODEgMTYuMTc3IDE5LjAwMSAxMjEuNDgzLjQwMy0xNS43NjctMTkuNDA0eiIgZmlsbD0iIzgzMzMxYiIvPjxwYXRoIGQ9Im0tMTQ0LjEzNDc3IDMyMS45OTAyM3Y2OC4wODM5OWEyNC4wMzYyODIgMTAuODg0MzUzIDAgMCAxIDIxLjY4NTU1IDEwLjgyMDMxaDEyNS43NzE0ODU2YTE4LjE0MDU5IDExLjMzNzg2OSAwIDAgMSAtMS41MDc4MTI1LTQuNTIzNDQgMTguMTQwNTkgMTEuMzM3ODY5IDAgMCAxIDE2LjU3NDIxODktMTEuMjkyOTd2LTYzLjA4Nzg5eiIgZmlsbD0iI2Y4YTM3YiIgdHJhbnNmb3JtPSJtYXRyaXgoLjc1MDAwMDAyIDAgMCAtLjc1MDAwMDAyIDAgNTAwLjAwMDAyKSIvPjxwYXRoIGQ9Im0tMzguMzIzNTYgMjQ5Ljg5NTgxYzEuOTYyIDEuMDYgNC45OTEgNC4yNDQgMy4xMjIgNy40MjgtLjM0Ni41ODktLjY4NC45NjgtMS4wMDggMS4xODNoOC4xNDVjLTEuMDYtMi4zMzMtNC44OS01LjE1NS00Ljg5LTUuMTU1cy0uMzEzLS42MDYtMi4wMTEtMS45NDFjLS45NjEtLjc1NC0yLjM0MS0xLjIzNy0zLjM1OC0xLjUxNW0tMjQuMDQxLjEzMWMtMS4wMDEuNDY1LTIuNDU1IDEuMjYyLTMuNDc4IDIuMzQ4LTEuNzA4IDEuODEzLTIuMDUyIDQuMTkxLTIuMDUyIDQuMTkxbC0xLjIwOCAxLjk0MWg0Ljg1M2MtLjMyNC0uMjE1LS42NjEtLjU5NC0xLjAwNy0xLjE4My0xLjc5Ny0zLjA2Mi45MzUtNi4xMjQgMi44OTItNy4yOTdtMjIuMjg3Ljk2MWMtMS4wNjUuMTA0LTMuMDQuMzcyLTUuMDE1IDEuMDMtMi45MTEuOTctNC42MDkgMy4xNTMtNC42MDkgMy4xNTNzLTMuMjc1LTIuMDAxLTcuNjQxLTIuNzk2Yy0xLjQ1OC0uMjY1LTIuNDA4LS4zNTQtMy4wMjgtLjM1NC0uMDEgMC0uMDE5IDAtLjAyOSAwLS4wODcgMS40NjQtLjM4NyAzLjAyOS0uMzg3IDMuMDI5cy0uODI3IDIuNjUzLTIuMDY4IDMuNDU3aDUuMTY4IDIwLjA4M2MtMS4yNDEtLjgwNC0yLjA2OS0zLjQ1Ny0yLjA2OS0zLjQ1N3MtLjQ2NC0yLjQyNS0uNDA1LTQuMDYyIiBmaWxsPSIjZGE4NDVkIi8+PHBhdGggZD0ibS02MC43ODY1NiAyNTUuMDQ5ODFzLjkyMy00LjgyMSAwLTUuNDU4Yy0uOTIyLS42MzctNi45MjYgMy41NDgtNC40NyA3LjczMnM0LjQ3LTIuMjc0IDQuNDctMi4yNzQiIGZpbGw9IiNkZWU2ZTMiLz48cGF0aCBkPSJtLTM5LjY3MjU2IDI1NS4wNDk4MXMtLjkyMi00LjgyMSAwLTUuNDU4Yy45MjMtLjYzNyA2LjkyNyAzLjU0OCA0LjQ3MSA3LjczMnMtNC40NzEtMi4yNzQtNC40NzEtMi4yNzQiIGZpbGw9IiNkZWU2ZTMiLz48cGF0aCBkPSJtLTc1LjI3MzU2IDI5NS40NTk4MWMxLjExNy01LjMzNS0yLjMwMi0xMC41NjYtNy42MzctMTEuNjgzcy0xMC41NjUgMi4zMDItMTEuNjgyIDcuNjM3IDIuMzAyIDEwLjU2NiA3LjYzNyAxMS42ODMgMTAuNTY1LTIuMzAyIDExLjY4Mi03LjYzNyIgZmlsbD0iI2Q0NTQxZSIvPjxwYXRoIGQ9Im0tNzkuMTM2NTYgMzAxLjQxMDgxYy0yLjE3NiAxLjU4MS00Ljk3OSAyLjI4MS03LjgxOSAxLjY4Ni01LjMzNS0xLjExNy04Ljc1NC02LjM0OC03LjYzNy0xMS42ODMuMjQzLTEuMTYxLjY5LTIuMjI0IDEuMjgyLTMuMTc3IDQuMzQ5IDEuNDc5IDEwLjkzMyA1LjAwNyAxNC4xNzQgMTMuMTc0IiBmaWxsPSIjODUyZTFiIi8+PHBhdGggZD0ibS03OS41NTU1NiAyOTQuNTYyODFjLjYyMS0yLjk3LTEuMjgyLTUuODgxLTQuMjUyLTYuNTAzLTIuOTY5LS42MjItNS44ODEgMS4yODEtNi41MDMgNC4yNTFzMS4yODIgNS44ODEgNC4yNTEgNi41MDNjMi45Ny42MjIgNS44ODItMS4yODEgNi41MDQtNC4yNTEiIGZpbGw9IiNmZmYiLz48cGF0aCBkPSJtLTExLjk3MDU2IDI5Ny4yOTQ4MWMtMi4yOTIgMC00LjQyNyAxLjQ1Ni01LjE4NSAzLjc1Mi0uOTQxIDIuODU0LjYwMiA1LjkzMiAzLjQ0OSA2Ljg4NyAxLjU3OC41NDUgOS4yNTggMy42IDYuOTYgMTAuNzY1LTEuNjYgNS4xOC00LjggNS45MzQtMTQuMDggNi45MTktMS43MDIuMTgtMy40NjEuMzY4LTUuMjg5LjYyOS02LjU2Ny45MzgtMTEuMzk2IDMuNjU0LTE0LjM1MSA4LjA3Mi00LjMxMiA2LjQ0NS0yLjYyMiAxMy43NTEtMi40MTUgMTQuNTYyLjc0NCAyLjkyMiAzLjcxNyA0LjY4MyA2LjY0IDMuOTQzIDIuOTIyLS43NDUgNC42ODctMy43MTggMy45NDItNi42NC4wMDIgMC0uNzQtMy4zOTEuOTQ2LTUuODQ1IDEuMTY4LTEuNzAxIDMuNDUtMi44MDQgNi43ODMtMy4yODEgMS42MzItLjIzMyAzLjI5Mi0uNDA5IDQuODk3LS41OCA4LjYyMy0uOTE1IDE5LjM1NS0yLjA1NiAyMy4zMjctMTQuNDQzIDQuMjI4LTEzLjE4Ny02LjAwNC0yMS44NTUtMTMuOTEyLTI0LjQ2NC0uNTY4LS4xODctMS4xNDUtLjI3Ni0xLjcxMi0uMjc2IiBmaWxsPSIjZTI1OTFlIi8+PHBhdGggZD0ibS0zMS4zNTM1NiAzNDAuMzM4ODEtLjE2Mi4yNjJjLTMuNi0yLjMtOC4xNDYtMi43OTEtMTAuNjkxLTIuODY4LjQyNi0xLjEzOC45ODctMi4yODkgMS43NC0zLjQxNC45NjYtMS40NDUgMi4xNTMtMi42ODggMy41MTYtMy43NjYgNC43ODQuNzkzIDguNjM2IDQuMzggMTAuNzU3IDYuODE1LTIuNDU1LjU3My00LjE5NCAxLjU2NC01LjE2IDIuOTcxIiBmaWxsPSIjODUyZTFiIi8+PHBhdGggZD0ibS0xOS43NTg1NiAzMjUuNTAwODFjMy45MTMtLjQzMyA2LjY1NS0uODYyIDguNjIyLTEuNjg4IDEuMzQ5IDIuMjQgMy4yMzIgNS45NTcgMy45MyAxMC4xNDctMi44OTcgMS4xNjctNi4wMTYgMS43MzktOS4wMyAyLjEyNi4yNjMtMi43MTYuMDc4LTcuMzk4LTMuNTIyLTEwLjU4NSIgZmlsbD0iIzg1MmUxYiIvPjxwYXRoIGQ9Im00LjE1NjQ0IDMxMS45OTA4MWMuNjEzIDIuNDg4LjY3MyA1LjI1Ni0uMDI1IDguMjc4LTEuMDc1LS44NjktMi40NTctMS42NTctNC4yMDItMi4xMS0yLjk1NC0uNzY4LTUuMDY2LS43MjEtNi40MDgtLjUwOS41ODEtMi45NDctLjU3Ny01LjEyOC0yLjE1LTYuNjc0IDQuODUyLTIuMTE5IDkuNTkzLS42NTMgMTIuNzg1IDEuMDE1IiBmaWxsPSIjODUyZTFiIi8+PHBhdGggZD0ibS02LjQ0NjU2IDMxNC44NTY4MWMtLjAwMy4wMDEtLjAwNi4wMDMtLjAwOS4wMDQuMDEyLjA2NC4wMjQuMTI4LjAzNC4xOTNsLjAwMS4wMDIuMDI4LjIzOGMuMDMxLjI1MS4wNTIuNTA2LjA1Ni43N2wuMDAxLjE2Yy0uMDA0LjMzOC0uMDI3LjY4NS0uMDgxIDEuMDQ3bC4wMDEtLjAwMWMtLjA2Ni40NS0uMTY3LjkxNi0uMzIyIDEuNDA0LjExMS0uMzUyLjE5OS0uNjkzLjI2NS0xLjAyNS0uMDAyIDAtLjAwNCAwLS4wMDYuMDAxLjIwMS0xLjAyMS4xOTQtMS45NS4wMzItMi43OTNtLS4yOTIgMy44MmMtLjAwMy4wMDctLjAwNS4wMTUtLjAwOC4wMjItLjg1NiAyLjY3MS0yLjEwNSA0LjE2NS00LjM4NiA1LjEyMSAyLjI4MS0uOTU2IDMuNTMtMi40NSA0LjM4Ni01LjEyMS4wMDMtLjAwNy4wMDUtLjAxNS4wMDgtLjAyMm0tMTMuMDE4IDYuODI1Yy0uMzQ3LjAzOS0uNzA0LjA3Ny0xLjA3LjExNi0xLjcwMi4xOC0zLjQ2MS4zNjgtNS4yOS42MjktLjA0OC4wMDctLjA5Ny4wMTQtLjE0Ni4wMjIuMDQ5LS4wMDguMDk4LS4wMTUuMTQ3LS4wMjIgMS44MjgtLjI2MSAzLjU4Ny0uNDQ5IDUuMjg5LS42MjkuMzY2LS4wMzkuNzIzLS4wNzcgMS4wNy0uMTE2em0tNi41NC43NzJjLS4wMDcuMDAxLS4wMTUuMDAyLS4wMjMuMDAzLjAwOC0uMDAxLjAxNS0uMDAyLjAyMy0uMDAzbS0uMDc1LjAxMWMtLjAwMSAwLS4wMDIgMC0uMDAzIDB6IiBmaWxsPSIjODNiYWQyIi8+PHBhdGggZD0ibTMuMzIzNDQgMzA5LjUwNjgxYy0uNjA4LjQ1My0xLjIyOS44OS0xLjg2NSAxLjMxMS45NjIuMzM0IDEuODUxLjczMyAyLjY0NiAxLjE0Ni4wMTMtLjAwOC4wMjUtLjAxNy4wMzctLjAyNi0uMjExLS44NDQtLjQ4OC0xLjY1My0uODE4LTIuNDMxbS03Ljk4OCA4LjAwOGMtLjcxIDAtMS4zMTIuMDU2LTEuODA4LjEzNC0uMDY2LjMzMi0uMTU0LjY3My0uMjY1IDEuMDI1LS4wMDEuMDAxLS4wMDEuMDAyLS4wMDEuMDAzLS4wMDMuMDA3LS4wMDUuMDE1LS4wMDguMDIyLS44NTYgMi42NzEtMi4xMDUgNC4xNjUtNC4zODYgNS4xMjEuNDk0LjgyIDEuMDU5IDEuODM5IDEuNjEyIDMuMDA2IDIuNzQ5LTEuMTA4IDQuNjI1LTIuODIxIDYuMDE2LTUuNjAzLjU2Ni0xLjEzMS43NTctMi4zNTEuNjk1LTMuNTkyLS42ODUtLjA4Mi0xLjMwMy0uMTE2LTEuODU1LS4xMTZtLTE1LjA5MiA3Ljk4N2MtLjM0Ny4wMzktLjcwNC4wNzctMS4wNy4xMTYtMS43MDIuMTgtMy40NjEuMzY4LTUuMjg5LjYyOS0uMDQ5LjAwNy0uMDk4LjAxNC0uMTQ3LjAyMi0uMDExLjAwMS0uMDIzLjAwMy0uMDM0LjAwNS0uMDA4LjAwMS0uMDE1LjAwMi0uMDIzLjAwMy0uMDE4LjAwMy0uMDM1LjAwNS0uMDUyLjAwOC0uMDAxIDAtLjAwMyAwLS4wMDMgMC00Ljg3OC43MzctOC43NjkgMi40ODEtMTEuNjQgNS4xNzguMzQxLS4zMTYuNjk2LS42MTkgMS4wNjQtLjkxLjU2OC4wOTQgMS4xMjMuMjI4IDEuNjY0LjM5NCAyLjc1Mi0uODkzIDYuMjIxLTEuNjQ1IDEwLjQzNy0xLjg4NyAyLjc5NS0uMTYgNS4yNDYtLjMyNiA3LjQwMy0uNTU2LS41NC0xLjA2OC0xLjI4Ny0yLjA5NS0yLjMxLTMuMDAyIiBmaWxsPSIjYmE0YTFmIi8+PHBhdGggZD0ibS0zNi45NTA1NiAzMzAuNTUyODFjLS4zNjguMjkxLS43MjMuNTk0LTEuMDY0LjkxLS4zMDYuMjg3LS42LjU4NS0uODgzLjg5MyAxLjAyNC0uNDc0IDIuMjI3LS45NTkgMy42MTEtMS40MDktLjU0MS0uMTY2LTEuMDk2LS4zLTEuNjY0LS4zOTQiIGZpbGw9IiM2ZjI3MTciLz48cGF0aCBkPSJtLTExLjEzMjU2IDMyMy44MTk4MWMtMS45Ny44MjUtNC43MDcgMS4yNDktOC42MjQgMS42ODIgMS4wMjMuOTA3IDEuNzcgMS45MzQgMi4zMSAzLjAwMiAzLjI1NS0uMzQ2IDUuODQyLS44MzggNy45MjYtMS42NzgtLjU1My0xLjE2Ny0xLjExOC0yLjE4Ni0xLjYxMi0zLjAwNnoiIGZpbGw9IiM2ZjI3MTciLz48cGF0aCBkPSJtMS40NTg0NCAzMTAuODE3ODFjLTIuNDMxIDEuNjEyLTUuMDYzIDIuOTktNy45MDUgNC4wMzkuMTYyLjg0My4xNjkgMS43NzItLjAzMiAyLjc5My4wMDItLjAwMS4wMDQtLjAwMS4wMDYtLjAwMS40OTYtLjA3OCAxLjA5OC0uMTM0IDEuODA4LS4xMzQuNTUyIDAgMS4xNy4wMzQgMS44NTUuMTE2LS4wMjctLjU0OS0uMTA0LTEuMTAxLS4yMTktMS42NTIgMi41NTEtMS4xMDMgNC45MzQtMi40NTQgNy4xMzMtNC4wMTUtLjc5NS0uNDEzLTEuNjg0LS44MTItMi42NDYtMS4xNDYiIGZpbGw9IiM2ZjI3MTciLz48cGF0aCBkPSJtMS45NTY0NCAzMjEuMTM5ODFzLTQuNDI4IDYuMTk1LTEwLjA0NCA5LjI2NmMuMjMzLjcxNS40NDIgMS40NTYuNjE3IDIuMjE3LjkyNy0uNDM2IDEuNzcxLS45MzUgMi40NzctMS41MDcgNC45NjQtNC4wMTkgNi45NS05Ljk3NiA2Ljk1LTkuOTc2bS0xOC4xMjcgMTIuNTcyYy0zLjI0OCAxLjE3My01LjUzNSAxLjg2NS01LjUzNSAxLjg2NXMyLjQyNy0uMDkxIDUuNTQtLjU2OGMuMDE0LS40MDkuMDE1LS44NDQtLjAwNS0xLjI5NyIgZmlsbD0iI2U2NjczMyIvPjxwYXRoIGQ9Im0tOC4wODc1NiAzMzAuNDA1ODFjLS40NzguMjYxLS45NjQuNS0xLjQ1Ni43MS0yLjM2NCAxLjAwOS00LjY3IDEuODktNi42MjcgMi41OTYuMDIuNDUzLjAxOS44ODguMDA1IDEuMjk3IDIuNzYzLS40MjMgNi4wNjYtMS4xNSA4LjY5NS0yLjM4Ni0uMTc1LS43NjEtLjM4NC0xLjUwMi0uNjE3LTIuMjE3IiBmaWxsPSIjOTQ0MDFkIi8+PHBhdGggZD0ibS01Ny42ODY1NiAzMDMuNzgzODFzMTQuNDc0IDE3LjA2NCA0My44MjUgMTIuOTQgNDAuMjY3LTQyLjQ1IDQwLjI2Ny00Mi40NWwtMTIuNjE0LTE1Ljc2N2gtNzEuNDc4eiIgZmlsbD0iI2VmNWQyMiIvPjxwYXRoIGQ9Im0tNTMuMDY0NTYgMzA3Ljg4OTgxYzMuMTE4Ljg1NCA4LjA3NCAxLjUzNiAxNS43MTUgMS4wMTEgMTguNTMyLTEuMjczIDQyLjU5MS0zMC45OSA0Mi41OTEtMzAuOTlzLTEwLjY2OCAzMy44OTMtNDQuNjE5IDM2Ljk0MmMtNi4wODUtMS45NTEtMTAuNjQyLTQuNjkzLTEzLjY4Ny02Ljk2MyIgZmlsbD0iIzg1MmUxYiIvPjxwYXRoIGQ9Im01LjAyODQ0IDI2My4yOTg4MWgtNC4xODRjLTEuMTUgMy4yMTUtNi45MjMgMTguMzc2LTE2LjE2MSAyNi4zMTgtNy42MTMgNi41NDQtMTguNjU0IDE0LjE2Ni0zMi40MSAxNC44NzkuNzA0LjAzNiAxLjQwMS4wNTQgMi4wOTIuMDU0IDkuOTE5IDAgMTguNTAxLTMuNjU3IDI1LjQ5LTguMTQ0LjAyMS4xMjkuMDM0LjI1OC4wNjEuMzg4LjI5MyAxLjQwMy44NzQgMi42NyAxLjY2NSAzLjc1OCA1LjUzNC0zLjk4MyAxMC43MTMtOC43NjQgMTQuODA4LTEyLjkwNi0uOTk5LS45NTQtMi4xOTEtMS42OTItMy40OTctMi4xNTkgNi44ODMtOC4yMTUgMTEuMTYzLTE5LjQ3MSAxMi4xMzYtMjIuMTg4bS02LjMzOCAyNy43MDZjLTIuODM3IDQuMzM0LTYuNzA5IDkuMTA3LTExLjgxOSAxMy4yNS4xNDkuMDQyLjMuMDguNDUxLjExNmwuMTY3LjA0MWMuMjU5LjA1Ni41MjEuMDk5Ljc4Ni4xMzRsLjIyNy4wMzNjLjI0OS4wMjcuNTAxLjA0Ljc1NC4wNDguMDkxLjAwMy4xODEuMDEyLjI3My4wMTJoLjAyM2MuMjQ1IDAgLjQ5Mi0uMDE2Ljc0LS4wMzQuMDktLjAwNi4xOC0uMDA2LjI3MS0uMDE1LjM0NC0uMDM1LjY4OS0uMDg2IDEuMDM1LS4xNTkgNS4zMzUtMS4xMTcgOC43NTQtNi4zNDcgNy42MzctMTEuNjgyLS4xMTctLjU2LS4yODktMS4wOTItLjQ5Mi0xLjYwNmwtLjAzNC0uMDkxYy0uMDA2LS4wMTYtLjAxMi0uMDMxLS4wMTktLjA0NyIgZmlsbD0iI2M3NGQxZiIvPjxwYXRoIGQ9Im0tMy42MTA1NiAyODcuNjQ1ODFjLTQuMDk1IDQuMTQyLTkuMjc0IDguOTIzLTE0LjgwOCAxMi45MDYuNjE2Ljg0NyAxLjM2MSAxLjU4NSAyLjE5OCAyLjE5My4yNjkuMTk2LjU0OC4zNzguODM1LjU0NWwuMDE3LjAxYy4yNzguMTYxLjU2NC4zMDkuODU3LjQ0M2wuMDUzLjAyNWMuMjc4LjEyNS41NjIuMjM2Ljg1Mi4zMzVsLjEwNS4wMzhjLjEyNC4wNC4yNDguMDc4LjM3My4xMTQgNS4xMS00LjE0MyA4Ljk4Mi04LjkxNiAxMS44MTktMTMuMjUtLjIwNy0uNTAzLS40NTYtLjk4LS43MzctMS40MzN2LS4wMDFjLS40NDItLjcxMS0uOTY5LTEuMzU3LTEuNTY0LTEuOTI1IiBmaWxsPSIjNmYyNzE3Ii8+PHBhdGggZD0ibS0yNC4yNjg1NiAyOTYuNzkzODFjLTEuMTE3LTUuMzM1IDIuMzAzLTEwLjU2NSA3LjYzNy0xMS42ODIgNS4zMzUtMS4xMTcgMTAuNTY2IDIuMzAyIDExLjY4MyA3LjYzN3MtMi4zMDIgMTAuNTY1LTcuNjM3IDExLjY4Mi0xMC41NjUtMi4zMDItMTEuNjgzLTcuNjM3IiBmaWxsPSIjZDQ1NDFlIi8+PHBhdGggZD0ibS0yMC40MDU1NiAzMDIuNzQ0ODFjMi4xNzYgMS41ODEgNC45OCAyLjI4MSA3LjgyIDEuNjg2IDUuMzM1LTEuMTE3IDguNzU0LTYuMzQ3IDcuNjM3LTExLjY4Mi0uMjQzLTEuMTYyLS42OTEtMi4yMjUtMS4yODItMy4xNzgtNC4zNSAxLjQ4LTEwLjkzNCA1LjAwNy0xNC4xNzUgMTMuMTc0IiBmaWxsPSIjODUyZTFiIi8+PHBhdGggZD0ibS0xOS45ODU1NiAyOTUuODk2ODFjLS42MjItMi45NjkgMS4yODItNS44ODEgNC4yNTEtNi41MDMgMi45Ny0uNjIyIDUuODgxIDEuMjgyIDYuNTAzIDQuMjUxLjYyMiAyLjk3LTEuMjgxIDUuODgyLTQuMjUxIDYuNTA0LTIuOTcuNjIxLTUuODgxLTEuMjgyLTYuNTAzLTQuMjUyIiBmaWxsPSIjZmZmIi8+PHBhdGggZD0ibS05NS42MDg1NiAyNTguNTA2ODEtNC44NTIgNC45NHMxNS40NjUgMzEuNDQ5IDM2Ljc1IDM4LjcyNGMyMS4yODYgNy4yNzYgMzguMDI0LTMuNjQgNDguMzk0LTEyLjU1NCAxMC4zNy04LjkxNSAxNi4zNzMtMjYuOTI2IDE2LjM3My0yNi45MjZsLTMuODItNC4xODR6IiBmaWxsPSIjZjQ2YTJmIi8+PHBhdGggZD0ibS03MS4xMjM1NiAyODkuNTcwODFzMTcuNDM1IDEzLjczNyAyMC44NTMgMTMuNzM3YzMuNDE5IDAgMjAuMDc4LTEyLjA1NCAyMC4wNzgtMTIuMDU0bC0yLjc2Mi0zLjMxN3MtMTQuNTQ4IDExLjgwNy0xNy4zMTYgMTEuODA3LTE2LjQ1OS0xMS44MDctMTYuNDU5LTExLjgwN3oiIGZpbGw9IiM4NTJlMWIiLz48cGF0aCBkPSJtLTYyLjQ4NDU2IDI4NC4yOTI4MXMxMC4wMTYgOC40OTEgMTIuODg1IDguNDkxIDEyLjQwMS03LjM5OSAxMi40MDEtNy4zOTlsLTIuNTk3LTUuMDY3cy03LjU3OSA4LjIyLTkuODA0IDguMjItMTAuNzc3LTcuNjQxLTEwLjc3Ny03LjY0MXoiIGZpbGw9IiM4NTJlMWIiLz48cGF0aCBkPSJtLTEwMC40NjA1NiAyNjMuNDQ2ODEgMTMuNDkgNC41MnMtNC4zMDIgMTQuMDA5IDguMjUxIDIwLjc0IDE4LjEwMi0uMTgyIDE5LjgzLTQuMTg0YzEuNzI5LTQuMDAzIDEuNzI5LTE0LjU1NSAxLjcyOS0xNC41NTVoMTQuOTU0cy0uMTU3IDE1LjcwNyA2LjI3MSAyMC4xOTRjNi40MjggNC40ODggMTYuMDk1IDUuMDk0IDE5Ljg3My0zLjI3NCAzLjc3OC04LjM2OSAwLTE1LjY0NiAwLTE1LjY0NmwxNy4xMTktOC41NTEtMy44Mi00LjE4NGgtOTIuODQ1eiIgZmlsbD0iI2ZmZiIvPjxwYXRoIGQ9Im0tNjAuNzg2NTYgMjc3LjkxMDgxYzAtMy4yODItMi42Ni01Ljk0My01Ljk0My01Ljk0My0zLjI4MiAwLTUuOTQzIDIuNjYxLTUuOTQzIDUuOTQzczIuNjYxIDUuOTQzIDUuOTQzIDUuOTQzYzMuMjgzIDAgNS45NDMtMi42NjEgNS45NDMtNS45NDMiIGZpbGw9IiNmZGRkMDQiLz48cGF0aCBkPSJtLTYyLjQ4NDU2IDI3Ny45MTA4MWMwLTIuMzQ0LTEuOTAxLTQuMjQ1LTQuMjQ1LTQuMjQ1cy00LjI0NCAxLjkwMS00LjI0NCA0LjI0NSAxLjkgNC4yNDQgNC4yNDQgNC4yNDQgNC4yNDUtMS45IDQuMjQ1LTQuMjQ0IiBmaWxsPSIjMzkxOTEzIi8+PHBhdGggZD0ibS02Ny42MjE1NiAyODAuNTUzODFjMC0uOTY3LS43ODQtMS43NTEtMS43NTEtMS43NTFzLTEuNzUxLjc4NC0xLjc1MSAxLjc1MS43ODQgMS43NTEgMS43NTEgMS43NTEgMS43NTEtLjc4NCAxLjc1MS0xLjc1MSIgZmlsbD0iI2ZmZiIvPjxwYXRoIGQ9Im0tMjcuMDExNTYgMjc3LjkxMDgxYzAtMy4yODItMi42NjEtNS45NDMtNS45NDMtNS45NDNzLTUuOTQzIDIuNjYxLTUuOTQzIDUuOTQzIDIuNjYxIDUuOTQzIDUuOTQzIDUuOTQzIDUuOTQzLTIuNjYxIDUuOTQzLTUuOTQzIiBmaWxsPSIjZmRkZDA0Ii8+PHBhdGggZD0ibS0yOC43MDk1NiAyNzcuOTEwODFjMC0yLjM0NC0xLjkwMS00LjI0NS00LjI0NS00LjI0NXMtNC4yNDQgMS45MDEtNC4yNDQgNC4yNDUgMS45IDQuMjQ0IDQuMjQ0IDQuMjQ0IDQuMjQ1LTEuOSA0LjI0NS00LjI0NCIgZmlsbD0iIzM5MTkxMyIvPjxwYXRoIGQ9Im0tMzMuODQ2NTYgMjgwLjU1MzgxYzAtLjk2Ny0uNzg0LTEuNzUxLTEuNzUyLTEuNzUxLS45NjcgMC0xLjc1MS43ODQtMS43NTEgMS43NTFzLjc4NCAxLjc1MSAxLjc1MSAxLjc1MWMuOTY4IDAgMS43NTItLjc4NCAxLjc1Mi0xLjc1MSIgZmlsbD0iI2ZmZiIvPjxwYXRoIGQ9Im0xMy43OTE0NCAyNTguNTA2ODFoLTEyLjM3MWwzLjgyMSA0LjE4NHMtLjA3Mi4yMTQtLjIxMy42MDhoOC43NjNsMTEuNTM2IDE0LjE5N2MuNzIzLTEuOTg5IDEuMDczLTMuMjA2IDEuMDc4LTMuMjIyeiIgZmlsbD0iI2M3NGQxZiIvPjxwYXRoIGQ9Im0xLjQyMDQ0IDI1OC41MDY4MWgtNC4xODRsMy44MiA0LjE4NHMtLjA3MS4yMTQtLjIxMi42MDhoNC4xODRjLjE0MS0uMzk0LjIxMy0uNjA4LjIxMy0uNjA4eiIgZmlsbD0iI2EzM2YxZSIvPjxwYXRoIGQ9Im0xLjA1NjQ0IDI2Mi42OTA4MS0xLjIxNy42MDhoMS4wMDVjLjE0MS0uMzk0LjIxMi0uNjA4LjIxMi0uNjA4eiIgZmlsbD0iI2RlNTgxZCIvPjxwYXRoIGQ9Im0tMi43NjM1NiAyNTguNTA2ODFoLTkyLjg0NWwtNC43MDYgNC43OTJoMTAwLjE1NGwxLjIxNy0uNjA4LTMuODItNC4xODQiIGZpbGw9IiNkNWQwY2QiLz48cGF0aCBkPSJtLTU4Ljk3NDU2IDI3MS40ODI4MXMtNS42OC0xLjQ2Mi03Ljc1NS02Ljg1NWMtMi4wNzUtNS4zOTQuNzQ1LTkuMzA1IDUuNDc1LTEwLjM5NyA0LjczMS0xLjA5MSAxMS41NTMgMi40NTYgMTEuNTUzIDIuNDU2czUuNjAyLTUuNDU4IDEyLjM1Mi00LjA5M2M2Ljc1IDEuMzY0IDguOTM0IDkuMDk2IDUuNjU5IDEzLjczNi0zLjI3NSA0LjYzOS0xMS4yOCA1LjE1My0xMS4yOCA1LjE1M3MtMTIuMTc5LTMuNDg4LTE2LjAwNCAwIiBmaWxsPSIjZmZmIi8+PHBhdGggZD0ibS00OS43MDE1NiAyNTYuNjg2ODFzLjI4Mi0uMjcuNzczLS42NjR2OC42MDVjMCAuMzctLjMwMS42NzEtLjY3MS42NzEtLjM2OSAwLS42NzEtLjMwMS0uNjcxLS42NzF2LTguMjE3Yy4zNTYuMTY3LjU2OS4yNzYuNTY5LjI3NiIgZmlsbD0iI2E2YjliNSIvPjxnIGZpbGw9IiM4NTJlMWIiPjxwYXRoIGQ9Im0tNDIuMzA1NTYgMjY1LjU2MzgxczQuMzk0IDUuMTc2IDEuNTU0IDcuNDAzYy0yLjg0MSAyLjIyOC01LjUzNS0xLjYxMS05LjEwMS0xLjI2N3MtNy4zMDEgMy4wOTUtOC44MjUuNTcyYy0xLjUyMy0yLjUyMiAyLjMwMy01LjU2MiAyLjMwMy01LjU2MnMuOTA4IDIuNjU5IDMuMTk2IDEuMzc5YzIuMjg5LTEuMjguMzYxLTMuOTkuMzYxLTMuOTlzMS42ODUtMS4xMDQgMy4wNTktMS4zMzFjMS4zNzQtLjIyOCAzLjUwOSAxLjU0OSAzLjUwOSAxLjU0OXMtMS4xMDkgMy4wNzQgMS4yNDYgNC4yNjJjMi4zNTYgMS4xODkgMi42OTgtMy4wMTUgMi42OTgtMy4wMTUiLz48cGF0aCBkPSJtLTg1LjkwNDU2IDI4MS41Mjc4MXMtMy4zNjctNC4zNzQtMy4wOTQtMTAuODMyYy4yNzMtNi40NTkgOS41Ni0xMi4xODkgOS41Ni0xMi4xODlsLTMuNjU2IDUuNjg4Yy0uOTEzIDEuNDItLjYwMyAzLjMuNzE3IDQuMzUzbDUuNjU5IDQuNTEzcy03LjY0MS0yLjQ1Ni04LjkxNC0uNjM3Yy0xLjI3NCAxLjgyLS4yNzIgOS4xMDQtLjI3MiA5LjEwNCIvPjxwYXRoIGQ9Im0tMTUuNDU3NTYgMjg1LjM3OTgxcy0uNTI1LTUuNjc5LTEuOTItOC40OThjLTEuMzk2LTIuODItNi4yMTctMS41NDctNi4yMTctMS41NDdzNS4zNjctMi43MjkgNS4zNjctNC40NTdjMC0xLjcyOS0zLjYzOS03LjE4Ni0zLjYzOS03LjE4NnMxMS44MTcgNy40NDYgNi40MDkgMjEuNjg4Ii8+PHBhdGggZD0ibS04Ni4wMjY1NiAyNTguNTA2ODFzLTIuMzY1IDEuNzU4LTMuODgyIDQuMjQ1Yy0xLjUxNiAyLjQ4Ni0yLjAwMSA0LjAwMi0yLjAwMSA0LjAwMnMtLjE4Mi0zLjI3NS43MjgtNS40NTggMS42MzctMi43ODkgMS42MzctMi43ODl6Ii8+PHBhdGggZD0ibS0xMy43NDA1NiAyNTguNTA2ODFzMi4yMDkgMS44MSA0LjEyNCA1LjE4NWMxLjkxNSAzLjM3NCAyLjYwOCA3Ljc5MSAyLjYwOCA3Ljc5MXMuOTA5LTYuMzY2LjMwMy05LjA5NWMtLjYwNy0yLjcyOS0xLjU3Ny0zLjg4MS0xLjU3Ny0zLjg4MXoiLz48cGF0aCBkPSJtLTQuNzg3NTYgMzE0LjE3MzgxYy0yLjgwOSAxLjE5OC01LjgyMiAyLjA5My05LjA3NCAyLjU1LTIuNzA3LjM4LTUuMjg1LjU3OC03LjczOS42MjggNC44MzUtMS4xNSAxNC44NDEtNC4yNjQgMjIuNzkzLTExLjU4MSAxMC45MDEtMTAuMDI5IDE1LjE0Ni0xOS4yMiAxNS4xNDYtMTkuMjJzLTYuNTU3IDE4LjA5OC0yMS4xMjYgMjcuNjIzIi8+PHBhdGggZD0ibTEuOTU2NDQgMzAxLjk1MDgxczcuMTA1LTUuNTg2IDExLjM1LTE2LjU3MSA0LjEyNC0xMy44OTcgNC4xMjQtMTMuODk3bC0xOC4wNzIgMjIuNjgyIDEyLjAwOC0xMS4wMzdzLS40ODYgNi40NDMtOS40MSAxOC44MjMiLz48L2c+PHBhdGggZD0ibTM5LjQxMjEwOSAyOTYuMTE5MTQtMjEuMDIzNDM3IDI1Ljg3MTA5djU5LjkyNTc5YTkuMjk3MDUyMiAxNy4yMzM1NjEgMCAwIDEgNS40MTk5MjItMy4yMzA0NyA5LjI5NzA1MjIgMTcuMjMzNTYxIDAgMCAxIDUuMTk3MjY1IDIuOTQzMzZsMTAuNDA2MjUtMTguODg0Nzd6IiBmaWxsPSIjZjY4NTRmIiB0cmFuc2Zvcm09Im1hdHJpeCguNzUwMDAwMDIgMCAwIC0uNzUwMDAwMDIgMCA1MDAuMDAwMDIpIi8+PHBhdGggZD0ibS0zLjMwOTU2IDI0MC40MzQ4MWg3LjAzNHY1Ljk3aDMuMTg4bC02LjcwNSA3LjYyNi02LjcwNS03LjYyNmgzLjE4OHoiIGZpbGw9IiM4NTJlMWIiLz48cGF0aCBkPSJtLjIwNzQ0IDIzOC42MTk4MWgtNi43MDV2LTIuMzA5aDEzLjQxdjIuMzA5eiIgZmlsbD0iIzg1MmUxYiIvPjxwYXRoIGQ9Im0tNC4yODY1NiAzMTAuMDE5ODFjLTMuMzIxIDEuMjE0LTcuOTMzIDIuNDU5LTEzLjA5MSAyLjU4LS42NjUuMDE2LTEuMzM5LjAyMy0yLjAxNS4wMjMtMi43MzYgMC01LjUzNS0uMTItOC4xNDctLjI5Mi0xLjM2NS40NzUtMi43ODIuODk5LTQuMjUgMS4yNjEgMy4yNTQuNzQ5IDcuMjc1IDEuMzc0IDExLjYyNyAxLjM3NCAxLjE1MSAwIDIuMzIzLS4wNDQgMy41MTEtLjE0IDEuNjYzLS4xMzUgMy4xOTgtLjM2NCA0LjYxLS42NTggMi40ODktMS4wNzYgNS4xNDQtMi40MzcgNy43NTUtNC4xNDgiIGZpbGw9IiNmMDZjMzQiLz48cGF0aCBkPSJtLTM5Ljc5NTU2IDMxMS4wODM4MXMzLjE1MSAxLjM5MiA4LjAwNiAyLjUwOGMxLjQ2OC0uMzYyIDIuODg1LS43ODYgNC4yNS0xLjI2MS02Ljc1LS40NDctMTIuMjU2LTEuMjQ3LTEyLjI1Ni0xLjI0NyIgZmlsbD0iIzk0NDAxZCIvPjxwYXRoIGQ9Im0xLjA1NjQ0IDMwNy42Mjc4MXMtMi4wMjggMS4xOC01LjM0MyAyLjM5MmMtMi42MTEgMS43MTEtNS4yNjYgMy4wNzItNy43NTUgNC4xNDggOS4xMTYtMS44OTkgMTMuMDk4LTYuNTQgMTMuMDk4LTYuNTQiIGZpbGw9IiM5NDQwMWQiLz48cGF0aCBkPSJtLTQ2LjQwMzMyMiAzNjguNzA3NTRhOTMuNzUwMDAyIDkzLjc1MDAwMiAwIDAgMSAtOTMuNzQ5OTk4LTkzLjc1MDAxIDkzLjc1MDAwMiA5My43NTAwMDIgMCAwIDEgOTMuNzQ5OTk4LTkzLjc1IDkzLjc1MDAwMiA5My43NTAwMDIgMCAwIDEgOTMuNzUwMDAzIDkzLjc1IDkzLjc1MDAwMiA5My43NTAwMDIgMCAwIDEgLTkzLjc1MDAwMyA5My43NTAwMXptMC0xOC43NWE3NSA3NSAwIDAgMCA3NS4wMDAwMDItNzUuMDAwMDEgNzUgNzUgMCAwIDAgLTc1LjAwMDAwMi03NSA3NSA3NSAwIDAgMCAtNzQuOTk5OTk4IDc1IDc1IDc1IDAgMCAwIDc0Ljk5OTk5OCA3NS4wMDAwMXoiIGZpbGw9IiNlNjYwMDEiIGZpbGwtcnVsZT0iZXZlbm9kZCIgc3Ryb2tlLXdpZHRoPSIuNjkxMzY3Ii8+PHBhdGggZD0ibS0zMS4zNTM1NiAzNDAuMzM4ODFjLTEuNjg2IDIuNDU0LS45NDQgNS44NDUtLjk0NiA1Ljg0NS43NDUgMi45MjItMS4wMiA1Ljg5NS0zLjk0MiA2LjY0LTIuOTIzLjc0LTUuODk2LTEuMDIxLTYuNjQtMy45NDMtLjItLjc4MS0xLjc1Ny03LjU3OCAxLjk3Mi0xMy44MzQgMi45MDcuNTQ1IDcuMTYzIDEuNzc5IDEwLjIwNCA0LjUzNC0uMjQuMjM5LS40NjMuNDg4LS42NDguNzU4IiBmaWxsPSIjZmZmIi8+PC9nPjwvc3ZnPg==;" vertex="1" parent="1">
          <mxGeometry x="590" y="530" width="80" height="80" as="geometry" />
        </mxCell>
        <mxCell id="cAx9rAFkMP_3yn_bTL0R-31" value="Transmission" style="shape=image;verticalLabelPosition=bottom;labelBackgroundColor=default;verticalAlign=top;aspect=fixed;imageAspect=0;image=https://upload.wikimedia.org/wikipedia/commons/6/6d/Transmission_icon.png;" vertex="1" parent="1">
          <mxGeometry x="580" y="400" width="80" height="80" as="geometry" />
        </mxCell>
        <mxCell id="cAx9rAFkMP_3yn_bTL0R-32" value="" style="rounded=0;whiteSpace=wrap;html=1;" vertex="1" parent="1">
          <mxGeometry x="535" y="230" width="300" height="110" as="geometry" />
        </mxCell>
        <mxCell id="cAx9rAFkMP_3yn_bTL0R-29" value="" style="shape=image;aspect=fixed;image=data:image/svg+xml,PHN2ZyB4bWxucz0iaHR0cDovL3d3dy53My5vcmcvMjAwMC9zdmciIHZpZXdCb3g9Ii0yMC44MDUgMCAxMjkuOTMgMTI5LjkzIj48ZGVmcz48bGluZWFyR3JhZGllbnQgaWQ9Ik5ld19HcmFkaWVudF9Td2F0Y2hfMSIgeDE9IjIuNzEiIHgyPSI2OS43NyIgeTE9IjIwLjA0IiB5Mj0iMjAuMDQiIGdyYWRpZW50VW5pdHM9InVzZXJTcGFjZU9uVXNlIj48c3RvcCBvZmZzZXQ9IjAiIHN0b3AtY29sb3I9IiMxMmIyMTIiLz48c3RvcCBvZmZzZXQ9IjEiIHN0b3AtY29sb3I9IiMwZjAiLz48L2xpbmVhckdyYWRpZW50PjxzdHlsZT4uY2xzLTJ7ZmlsbDojOTgwMjAwfS5jbHMtM3tmaWxsOnJlZH08L3N0eWxlPjwvZGVmcz48dGl0bGU+TmV3Vm9ydGV4PC90aXRsZT48cGF0aCBmaWxsPSJ1cmwoI05ld19HcmFkaWVudF9Td2F0Y2hfMSkiIGQ9Ik0zNi41NiAzOS45M0MyMC4zNCAzOC4yIDQgMjUuOTQgMi43MSAwYzI1LjE3IDAgMzguNjMgMTQuOSAzOS45MyAzOC41MSA0Ljc2LTI4LjMyIDI3LjA3LTI1IDI3LjA3LTI1IDEuMDYgMTYuMDUtMTIuMTIgMjUuNzgtMjcuMDcgMjYuNTktNC4yLTguODUtMjkuMzYtMzAuNTYtMjkuMzYtMzAuNTZhLjA3LjA3IDAgMDAtLjExLjA4czI0LjI4IDIxLjE1IDIzLjM5IDMwLjMxIi8+PHBhdGggZD0iTTQ0LjE2IDEyOS45M2MtMS41Ny0uMDktMTYuMjItLjY1LTE3LjExLTE3LjExLS43Mi0xMCA3LjE4LTE3LjM3IDcuMTgtMjcuMDhDMzIuNDQgNjEuNTMgMCA2NC41MyAwIDg1Ljc0YTE5Ljk0IDE5Ljk0IDAgMDA1LjgzIDE0LjE0TDMwIDEyNC4wNmExOS45NCAxOS45NCAwIDAwMTQuMTQgNS44MyIgY2xhc3M9ImNscy0yIi8+PHBhdGggZD0iTTg4LjMyIDg1Ljc1Yy0uMDkgMS41Ny0uNjUgMTYuMjItMTcuMTEgMTcuMTEtMTAgLjcyLTE3LjM4LTcuMTgtMjcuMDgtNy4xOC0yNC4yMSAxLjc5LTIxLjIxIDM0LjIyIDAgMzQuMjJhMTkuOTQgMTkuOTQgMCAwMDE0LjE0LTUuODNMODIuNDYgOTkuOWExOS45NCAxOS45NCAwIDAwNS44My0xNC4xNCIgY2xhc3M9ImNscy0zIi8+PHBhdGggZD0iTTQ0LjE2IDQxLjU5YzEuNTcuMDkgMTYuMjIuNjUgMTcuMTEgMTcuMTEuNzIgMTAtNy4xOCAxNy4zNy03LjE4IDI3LjA4IDEuNzkgMjQuMjEgMzQuMjIgMjEuMjEgMzQuMjIgMGExOS45NCAxOS45NCAwIDAwLTUuODMtMTQuMTRMNTguMyA0Ny40NWExOS45NCAxOS45NCAwIDAwLTE0LjE0LTUuODMiIGNsYXNzPSJjbHMtMiIvPjxwYXRoIGQ9Ik0uMDggODUuNzVjLjA5LTEuNTcuNjUtMTYuMjIgMTcuMTEtMTcuMTEgMTAtLjcyIDE3LjM4IDcuMTggMjcuMDggNy4xOCAyNC4yMS0xLjgyIDIxLjIxLTM0LjIyIDAtMzQuMjJhMTkuOTQgMTkuOTQgMCAwMC0xNC4xNCA1LjgzTDUuOTQgNzEuNjFBMTkuOTQgMTkuOTQgMCAwMC4xMSA4NS43NSIgY2xhc3M9ImNscy0zIi8+PHNjcmlwdC8+PC9zdmc+;" vertex="1" parent="1">
          <mxGeometry x="645" y="245" width="80" height="80" as="geometry" />
        </mxCell>
        <mxCell id="cAx9rAFkMP_3yn_bTL0R-21" value="Pihole" style="text;html=1;align=center;verticalAlign=middle;resizable=0;points=[];autosize=1;strokeColor=none;fillColor=none;" vertex="1" parent="1">
          <mxGeometry x="565" y="280" width="60" height="30" as="geometry" />
        </mxCell>
        <mxCell id="cAx9rAFkMP_3yn_bTL0R-35" value="Organise all those links" style="text;html=1;align=center;verticalAlign=middle;resizable=0;points=[];autosize=1;strokeColor=none;fillColor=none;fontSize=14;" vertex="1" parent="1">
          <mxGeometry x="520" y="50" width="170" height="30" as="geometry" />
        </mxCell>
        <mxCell id="cAx9rAFkMP_3yn_bTL0R-36" value="" style="rounded=0;whiteSpace=wrap;html=1;" vertex="1" parent="1">
          <mxGeometry x="535" y="80" width="300" height="110" as="geometry" />
        </mxCell>
        <mxCell id="cAx9rAFkMP_3yn_bTL0R-37" value="Heimdall" style="text;html=1;align=center;verticalAlign=middle;resizable=0;points=[];autosize=1;strokeColor=none;fillColor=none;" vertex="1" parent="1">
          <mxGeometry x="560" y="120" width="70" height="30" as="geometry" />
        </mxCell>
        <mxCell id="cAx9rAFkMP_3yn_bTL0R-38" value="" style="shape=image;verticalLabelPosition=bottom;labelBackgroundColor=default;verticalAlign=top;aspect=fixed;imageAspect=0;image=data:image/png,iVBORw0KGgoAAAANSUhEUgAAAOEAAADhCAMAAAAJbSJIAAAAkFBMVEVKXGf////V2txEV2JLXWg9UV1IWmZBVGBDVmHb3+Hf4+TY3d86Tlo3TFjT2Np3g4vk6OmIk5qstLjJz9Ohqa5XZnBodn+aoaa1vMGOmJ5te4Pu8PGEj5a+w8ZTY24rQlBpd4AbNUVfb3jFzM66wsWbpaulrrLr7u90gYgjPEoQMECwuL2TnqT0+PcgOUiFkJm2mSoXAAAYoElEQVR4nNVdi3aqOrtFQhISCGAVqojoQm1Zu3b97/92JwmoAUEhQOuZe4y1LSLJJF++W27GbGJ8fwbmYrtarv04ClPLMAwrDaPYXy9X24UZfH5PXQFjyofT4ymJQwu7jLkQ2wAhQwAhYGMoLmIrjJPTkU5ZiYkYbpztMmQ7zgFIVpZxD3kNAc5/x8Ll1tlMU5UJGH6TtyQEzAUNrNoAXAbC5I1MILNjM9xs31PGYB92JRCAjKXv27GbclSGwcoHrg67W1tCF/irYMxKjchwlSAGB7C7ADKUrMar1kgMN14CmY1G4CeAbAYTbyRxHYfhV4TdseiVJF0cfY1StxEYkvUfNi69kiT7syYvwJAkyG00d8NhGS5KBnMcyNDLdngSdhfgXeb9IkMvh9PykxxhPojjAIbEZ9PzkxyZP0BWtRnSNRzD+HUDhGtt71yX4Qq4P8ZPwAW6ToAeQw9MYh8eATGg1x21GM6h/cP8BGw4/yGGx93PdcAq4O74Awy/EzYkeBgGwJLeEWRfhlv0sxqmDhdtJ2X4fWKgt4eG239h9TaoFmCnfs3Yi2EQsr414p1nzdooWmytIREs7BUh92F4RD1VKEi5kj/P/rQ24p/Zmol26fdYG/VROD0YLvuqGBhniM3ppjUyBmhDE4ayuKdyBmw5AcNN3FNCLTifY/dMzcBv620wCUy6dvE8gT17N4s7ZwC6MtxkfY0gmx8ZS6hpkve2zuaeCP/aZ+yY9O3gMOtKsSPDA3ugEZurkAcA+oFpms5XWxvilcO/D3wXBXnPF2hhdhiT4aJ3ihDmnz7LPFMw3Lb9GG0FQ9PLWPLZty8aAC7GY7js7WfjLHD+M0xJwDTD5p+jrPja8cB/NMj62kbUTd90Yfi161m2AcIFXbMvKgkEHy0Cjqy3QN5B39iaLtLe3uCuSzauA8P3VovdBgQPxEzXkqDjzP/hljbE/9aObGa6Dk2y7W39LfY+BsNTfz/GfaPmwvgsCIa7s9PYxxB21rusEORPsDDpR38Hh52GM9QgCH3eeoujrDtJrCPdhE0CCLINPRoJkbcduVKifv+w7DnFZwzf+xMEhQIpGmcRU2KemnsYOpmExN7tbq/xTTyh+ExQnzD80nC1dytiXuF5NAhbmgbBLKCed7uZrHb9c8vsibp5zHCpUSJcB6YCcnwwVArgkao3B/P+cmrtHhuNhwwXGi2I0kWFoGc8kjxgeY56+yLVyHCxh6b/EcMD7F+ctau2ihc+jrjs0FNvpzpyyo2THsONTkIGh5+VGifPxA4mlTfymWqk8QB74Ia3M9z0dqME7K0qdV2suFv5hXPUSVTiB5FGO8PerrAsyidqi5DoeX3tfaURSWs0+Qgw7s9wqaFluKU4VJrw2OUhbKu+FXLo7QXLh7Qq1DaGnep2B+wH/duj1hODXGtEi7XlbloYBkgr7QuPFd3vtYRNVYCsok6dlVZKHaCWDFwzw+8nOr4Fdk6rde3WGrj6Xkis1Yh22JxHbWao4W4LuB9VpfHRrTXgR0U96cQYAi1OeCPDrR5BlFZq2sEYFoDzyosxiaU3dMcaE/5NDL8fOloPavpeY7jvJm52XGVIz3qDW8BoktMmhomrN3sEVkwF14odgyGQVTSw6Rz0GFpu0o3hUXN0CWTVJjSDjul6kFYZmiTTHMBzG0xGA8Od5gA2PNM6w25PQnWGdK05Bot2XRhqhGgF7JqQmkHH7BkIawydre40loaB8DuGni5BFJo1BB2FzY5o/aedXIUmwLvpDHcMge4kBLyu15N2dKJxUv8lWes2og2eMVz1To5e4H6Ru3p2tIfnu1++6Y6lW6w+76bGkALteTJuXdJM560jwzen/lNPe7YAAvQhQ51R5wJ3Kv/RkEztp9s7hl2VVAPc9SOGRH+mDLzrTJqxRdmFB9SEPGA45Lkf9c4kEt5dngeThl8uB9TEb2fo6XncEvbxTtRM0imhzFb3DJ3VgHllzGtlqBddF6imSS/C1sEiguxevE1zMWBiNc7bGGobe0OMdt53JhHqPTU+FmsQ765duAUVs68y1EoflrD9eyEVFJ8m2/C+qQlNJx8wew5nzQyJVpLr8tB5c0WPT+QC4XtTIUCSITOsd6SR4aBnwvdGhmIA+3YThgWUgi5D4Xe/04yCy4KSJoZkyKxfi73dauqpapWeCycCQGzFyfn0cTonsYXLASlXjbjkMOnlZx8D9DoXDdLAUN+dMeSAzE1fOHNV69DVDhuYRcuDSWgJ87DMGL+6qySDvfntzRB9B1lAcWxuDP8MeKBh/V3cakfPS1X06CG3/S2lleEJSrc5zg/qfWSpNKiz0BiEUvDnnuHXoHdm/XVuBJwDqhgAh2xJg9viHEg1TwqUENrx/g6qz21k+MJwEw2bfM/UVClNawmNRnVZAz2H6iM+NNNhJVC0qTH0Bi5/AXullci7Va19M8PqVQ+psk2igbPJsVdjmAydvp2pIb7nykjDKzsn+Wii6JTOjLMQiokmUJ2zMM8GLui4ZhYvDDUGtCtgi5Uqcf5OkHNOBUU6b3LMSOEkOIsTv4ksdpXwa3UYZC3E0HeV4Wrg82rJUucA94KbF0lRJPvGNpQJKIffI//AlVSdo5syveKSzjBG8GckYCURRROpeshSdk9iNbnlniUZRqL70SWruH06005quPg1BcNghFVMxVBu2Q6O5/4VBpBmYkyCsHoqVdyyZZTbxb1oSYf+harioXoDtFWUA4rGOEJqiEQN73SLQyms9J3ljhRXHnSQ3fLe+6QnztDMoeywMTvRi4AveNfUHH2qoBTTguGA7MUNmDeX8/V2SUhl7BQIz/tv9ElZ3sAwZkEQ/RWed3Bm2UU8376czoNWj1FmMyTDzTgrmVzelciyHGLjypEJXzVY7yIH4EVdTJ0FNJxsdw6kD7orp0aRMzchdLDpKgA2V4b95642g4dCXpD4m6I1EhaKvkXiXWS5d2JK39002sVEdN2QzYuW3+RJ4FUCriFwt1eG72Mtt2Mr4gXn0CvmjOYsFC3znbnCXlYb0RFz5tzoW8yxTZkv+RMvfecEdeZDNgK+Xxh+66dfawCIk6N5Kik6HixcG3MPDZxXjT6JbQPGsjF9F0oZpYuUMyWeftq9Xpv0u2RIxnppIkMi5/oW0/fI0ZZLShwaQ8udV+2la7m5tCcJwzK25HGkaMpnU/36gJGS4VhyL4CzT05pz2S/4wZBzjZ1nIQZV3tQfGGwRC4nmcPy3iUTnfJzSDqsDvZWMuw4ZaITLOGbOE72V44n0bnLZCDFzSNyk6Doi06QuMCVhOmaMekMkfPfjIeYJBkUptYAk4Jh8zxzbbi8xo6Xsb2UwRwWS4Pom2W7sYzp6WHvYktmoALxtZTjiGW8M/I3MuYWGyDcSIbOaF27AHujHvEw23N945gRZImI5bkecTH4oJR+ANsNF4IXbzG4l0p0z4DnjGcnSiDgSIaa84PaIZZbkIMFwYF4DskwzIRudciZATd7y1zAzoIz8UKIM+p45ABgyt09ojkZqh1iDhFnuBz7ucheEF7t/2xjG/CWSTHXsFI8P1xo8/+gzDxSL8Q45N8HR8P+T/xi0bK2Rh/uUjIczRpeARhvPbrFQHjcziaDoEj8ksDHGPufUgl97QDMvoUS3QG8Fa9Ed5rLg4qkkuHYQmrI+elc+D52CApL4CQY4SJTRd7SYriffvBrIj9KTxCJnussxlV4BZhgSIcMV7TBtrg+DU7QEMZDjkGUES6hBcGEIQPPhZfNDLgUwmxMsRXMjnKGYwSb98BitQ9Zc8O+LhdPMiVZQ4pVsTD/nPM7uOl0vGiSvW7YkTM8TbJJggWzoLBv+LIoyM0voWMQl2bP5R6McOecIOu71rkb3BNnODxF0/Jw3yxmHFy7V+GncdzWNQO50M3hof40m2nhZGZ8xxNt5GEVzsz+VneLyeiY28XbJRg70rWZhqAB4m/jc8hw8mO4vmMKi3+9wN1wrmnUPJqw+KbjT7abCAo/jWCityfg8tDdWdzEFETr+Xy+vqVCgcUD42CkpEUjrMAwJ9yvyxLhIaG3pe4IC1yFBsCAiB0HJnzJ2DQ0Zxx3hAg06LHFtUcGD33poJHZp4AHY3S/uwLZivTQuG0kgDyYoqMGhPdgW2PYaPJT8DiC8qiowadGWERZ62n3ZLLYyhg9sqgix65MEN6XwmMsjysZnE9avrs0dCeNdwM+hOif0Jd3k37xOeBB5D+UbSetAFwbWsv9uhfgvTExh5/cpWRF1EHXmH0tJhUi7BvxpJvLwUMQwUxkopoYehmMP6dtQzs2ho6XPwZXl0eIDk4jQ2cL4JZOyxBExnROmwDk5E5/17RRSun6r6A5KUMUGjoL4LtDjA4GuzBobMMgZZ/ai5w6AqUTbQF8gViRSM+75n7o/T1xn6bjIkVdTMtPdHQeOqxYC0N25N/up95Hc+J9SMUK2IXlNTO0PNM5TrxT7+T7rOKIG/a8meEi50I65khMM6aWU3Yk9LxoZHh4J3SMORIPYU2sS+V6EWfRwnDheIMnBj0B16XT2kNDrGoSG+s1+jQDVnB1BbeH0/o0An+CNq/NDP6bupNwn2Zav9SQO0TSFoa0946QvcH90mljCwm4Io1SSr6m33KZxxbTxocSdkgb25BOMRZTL2Y9dYwvYLmnoIFhcB51SLsZPMafOE9TwF7crbaDH4cfOHdA5GmmzbWVwHkDwyEr5TqDbSfOl14A0voVNP7QcxPgYdKct4KGbOKPlIvNScctXgBWMOXY0wtAjD1NNn74EhDjh5ONAb8ExBjwROP4LwI5jj/NXIwXgZyLMcl8mleBnE/TMCfKst2bHwDdSkfFrgL1i9p9tvo14H+oCg3B8gEYNRkrfvudckBu406v8P5OFaxlXpsdL8+XktF6qQZYIDm9X6HuDwzmS1Vngf3yfXn5G4Wn95O6GC29PMBnu/t6o/R0qgd1yFp+NIQi+LxMHgS45by2u+jCcteBeVm1gg6f6qRIuAroFYFSDXz8/FLvWwe3SRc8jiDUV+oXOoQGEt/b+yMJ3LeAerW2Rdbn5n6dicXM4NEWMeXcxHvf213T67octKXqK8Cnw/aCw0F5ffaqMgwqAnvnEuGKpQiVLQRCz1ktl8uPN0qIeTffC9dvlwyD4H5imMW8hznzcn7p3RxhSzK8PLrK0IBMgXL9nqF32frBzoKFR6oMib/j3ZCxNXHM2iInnNPFtr7drhbDyxzh+3nejxi24Z7h8VBuFAVPwccdQ5misRA7k/rmAvAjePPppqritRhe5nnfzdV/2IbdGX6dAnkFoQPxGxgWH/GBHCptiFKP+jsaVGulxfAyV/9+vYVgiGwggbUZrrJAdgAQk0VotjEUuypU0sKYy7fYomFb0ZFaDK/rLeprZkQbellY4tDeD9WKNUgpc6gwIC5vS9tpbUOfElXNcjeErlzb5xqoYkG1GJKWdU+WnMkUlHAqDOEXdS4gsSJeTQw/ghU0rH80iEErQzsiRDVpIAxojg3rQCsOsw7D27qnu7VrgmHwWaDO8I2QTYlvtdINDKFPPdsAxoYyq1VK7YhWGIqysXiTxFN1jQ7D29q1+vpDqWn+/SlxDKoM6QqjC5QfNTC0wYJrU26/l48Y7gnx1S5XNJ6dfla2TNZhqKw/rK8hLXSpJVHTpYIhLHRQ1Yw2MARc7/PyuSbF7Qx5Qzv721cgdhyxj7D1LyCqt6Ilpbc1pLV1wI+shWzDpsc1McQxXYCcHCzUztD94Krz+q6EEj3IG90TVfeK0mCorgOur+Uei6GBPBpzcw/bGSLLqwxf/P0kJ/knb0x1uzcNhpW13NX1+NYDv1RKacd+CIQPfTpsMtzGEGG2IlTZ3Rr6wWVvXrBVV+WXDGvFSoZu/erlJ+p6/Fqy5kkbovSCZwztnHunwb9GKcW8p6f5ilZ+Zq+uu87Dszp0IxjGRlns9apg+GaXV2vRSHVPhaqYPu6HxFtcoDojjQwNXOzZhqy6PTQXB44FIcFRmXuKMu+6w64wjLeSOUPzUmxwnZDLGTqX6njzqhDX9sWo7m3C40PvFh8GHzWLTy74zG5q3j5WIjU4D8TOly6PDGPeH61afGiWDzEPiTp/mPvo3jVSZlvqKW34eSnX+WYKQ3K5XJvgWd/bpLo/Dcj8/PIQFPuq+4T2vgJlmgOo3scfITweFPrFDFnfVzPP1uUBmVHRE/whNz+JP8JXJC+5lqo4CLZSmeqONnf701T3GOJu961Uu2ItgYKqbwxAw5+Xq9Uvr0+pqweg3lf93m4sVqlNLcqs7zE0dJ+oV8P9PlED9/p6NTTs9aW/X9u9ISqv1/7f6Vk6BTXiz+yeYW1lR/k8xF1TKeG3D0i9AaDsYrTKjiC92WttgZWVp//IM0EUw8BvvD4KXO8F10ejsvi09uW1IFEj41Jm7bCDxj33qvsm2omcaAMifx/PbeUDygqViUIxaIUyP4v9ojKxCBH45Xy+52oNy2OA7Zh/X6jHc4hAdFOo1nwfl/oVreX/ud7NYuHqgCgDlpsAcSRIHsexZCULkiVjX8YiKBVPEBbZ9vM4r+qRxn0Tq35NGueyIaIQYsxt6e2DytBiZxvgSF7BhW5HOI2FcZUHHfNKQwAFYcOKE1H1G0Mf2uh/YjYGyCJZZZwA7Iq3hThDo2AYG9jdZ6I+PgY4lPdZ/j6VFdhDDIXlsGOEca5ao+a9Lyv7l4J9KGuDoihN9zy6uX1QGaIwt0up4R/T8t3KEUnJ0Jak5QUrDn2mMkxsC85Fz7B9I5ZV5s0k15uiaB+G1v9kG2Zh5su3IH6JBX/+UVYBpbmVSkGyRWOE6uSulv1L1T1oQc6QiNpQ5EeRyDXfPqgMeWmg7DbYZ8wvqMqyCoZJwZBfsHLoh1mVIZa2G+W7UF6HaZSL1ZcoyrMsLBhGWcEwCo2SCo5tKN4rSpMsmouy5eVU8d/b9qBV9hFG4TpJljspMFga4duHqpSuoYVSkRZN/5ckcmWhyhDsM9tCmXhXVg5YEiv9kDc4Lto54b/k4gpihKCUjIh7g6yQ0hSAMBLCEmMLAX4NoXOSnLkzxS/xHrC2C4Z2pPjIrfsI3/aCthMDw5S/YXT54e1DJoKYi6bBfoRBwssDcQYxEl2ZS49kKNfCoiS18VzIIGeI0pPCMMEgl8F9gjGbS7mJME64P4wUTZMiW+oj5IdFQXaSFgWJHmIB4W5zhiBMlF7Yuhe0sp83lxoLivKvEdLtA3cBBQdL1hbvC+8UZFb5T/kFKuJV5OeJDB7EVTu6eRUo566qVBxCQm0hGOJZ8j2KsmypBjLh/BYaNC4/STnJyicicRfX874aHT/Yz/uWzRCPsioG7KapbLvwVEuDVzqEt38q/3J3sjSHqHys8hjlRnD3rKKM6138S1u583Jb8Zet+s6P9mQfsq/+6+DhvvrDNhN+DTw+G2HI+RYvgmfnWww4o+Q18PSMkgHnzLwGnp8zM+j4gBdAh7OC9M97egV0Oe9J/8yuF0C3M7u0z117AXQ8d0377LzfRuez87TPP/xtdD//cPw96n4G3c+w1D6H9HfR5xxS3bNkfxX9zpLVPQ/4F9HzPGDdM51/EX3PdNY9l/vX0P9cbs2z1X8LOmerzzbTryMfDTjbtPJoZzjbTLvB0YgArJ3gI4azw9BjPX4ICB4esHjEcLb4/6Ft2OIRiYcMZ8thhy79CKxdqxrtwHA22h730+E22qvFcPb+6hTZ+xMGzxi+uhPe4m73YfjaFJ8T7MCQC+qrqhvrqYh2Yzj7etXVbbsnSqYzQ+6Fv6LpR+3edm+GswV8PQcOwIeGvifD2YHh1+qMFmaPXLX+DHmk8VrBFHwQTegxnG3iV7IaLO5KsDtDoW9epTOCbjqmN8PZEb1GBs5GbTmZoQxnQfgKksrClqzaCAxn3ycGflenWoCdmvOi4zCczbbod0emXNSYuh+R4ew7+UUHB7GkXwPqMOQKZ/dbphHu+qgYfYZiIPw3lKrdMIQ9FcOZB35cVBEDd5MQJmQ4m63Az2ocF9TnyUzNcEbX8Oe6I4Rr+rxKIzOczYjPfibvj5lPnldnAoa8O+Zweo4Y5nodcAyGnGO2m5Yj3mWD+A1myGU14V7ONJ6cxT2YZIB8jsSQc1z/mcR2IPZnPZjfKAw5viLceNDKAHoujrpk0p5jHIazjZdAZo9FEtkMJl7nKP4xRmIosEoQG8NEQoYSXfPegBEZ8gh55QN3UOIRQBf4q14R7jOMypBjs31PGdNhiQBkLH3fjiScV4zNkOObvCUhYI3bq7W2nctAmLyR3tHfc0zAUGDjbJcp2zEXF5P/mwymVbQcdvl96XLrjN14JSZiWIAeT0kcWpwDcyG2wWVdKgI2huIitsI4OR21veoumJShwPdnYC62q+Xaj6NQ7uxgpWEU++vlarswg88J5LKK/wORWr2FrqrJFQAAAABJRU5ErkJggg==;" vertex="1" parent="1">
          <mxGeometry x="645" y="95" width="80" height="80" as="geometry" />
        </mxCell>
      </root>
    </mxGraphModel>
  </diagram>
</mxfile>
